<svg width="32" height="32" viewBox="0 0 32 32" fill="none" xmlns="http://www.w3.org/2000/svg">
<ellipse cx="15.8128" cy="18.0684" rx="10.3225" ry="7.45802" fill="white"/>
<path d="M28.9714 18.5787C28.632 16.6071 27.9718 14.971 27.0926 13.6282C27.7514 9.72482 28.5092 2.54838 26.4261 4.03641C24.3617 5.51207 22.3429 8.04876 21.5451 9.19549C17.9748 7.82599 14.0241 7.82599 10.4539 9.19549C9.65653 8.04876 7.63774 5.51254 5.57278 4.03641C3.49021 2.54838 4.24946 9.72958 4.90636 13.6258C4.02716 14.971 3.3674 16.6071 3.02752 18.5787C1.66611 26.4787 11.7667 28.2052 15.9995 28.2052C20.2322 28.2052 30.3314 26.4787 28.9714 18.5787ZM9.68129 22.5149C7.50351 22.6211 3.90958 19.2228 8.05521 17.3792C8.2622 17.2859 8.47513 17.2064 8.6926 17.1412C8.55408 17.5267 8.32035 18.3907 8.35939 19.1614C8.41032 20.1715 8.48601 20.637 8.66261 20.637C8.83921 20.637 8.54408 18.166 9.16766 17.0302C11.6491 16.6147 12.595 19.1447 12.7564 20.6432C12.6469 21.3035 11.8595 22.4135 9.68129 22.5149ZM15.9995 16.0473C12.7797 16.0473 12.2437 11.4551 15.9995 11.4551C19.7552 11.4551 19.2192 16.0473 15.9995 16.0473ZM22.3181 22.5149C20.1399 22.4078 19.352 21.3035 19.2478 20.6466C19.4096 19.148 20.3545 16.618 22.836 17.0336C23.4596 18.1694 23.1664 20.6404 23.3411 20.6404C23.5158 20.6404 23.5934 20.1743 23.6443 19.1647C23.6824 18.394 23.4486 17.5324 23.3111 17.1445C23.5286 17.2097 23.7415 17.2892 23.9485 17.3825C28.0898 19.2261 24.4964 22.6244 22.3191 22.5183L22.3181 22.5149Z" fill="black"/>
<path d="M16.2094 13.7655C16.2094 14.3186 16.0885 15.1083 16 15.1083C15.9114 15.1083 15.7905 14.3186 15.7905 13.7655C15.7905 13.2123 15.8453 12.186 16 12.186C16.1547 12.186 16.2094 13.2133 16.2094 13.7655Z" fill="black"/>
<path d="M29.8628 18.43C29.5296 16.4888 28.8941 14.8351 28.0416 13.4418C28.3272 11.6848 28.618 9.37281 28.6799 7.43971C28.7127 6.41913 28.6847 5.44281 28.5338 4.69642C28.4595 4.32941 28.3434 3.9386 28.1282 3.61872C27.8988 3.27218 27.5018 2.93896 26.9296 2.93896C26.524 2.93896 26.1737 3.11224 25.9004 3.3074C24.0135 4.65739 22.2008 6.80137 21.2126 8.12089C17.8303 6.9861 14.1701 6.9861 10.7878 8.12089C9.79916 6.80089 7.98601 4.65596 6.0986 3.30645C5.82822 3.11414 5.4774 2.93896 5.06993 2.93896C4.4987 2.93896 4.10075 3.27218 3.87131 3.61824C3.65853 3.9386 3.5381 4.32941 3.46575 4.69642C3.31485 5.44281 3.28486 6.4196 3.32009 7.44018C3.38197 9.37376 3.67329 11.6858 3.95795 13.4428C3.10112 14.8351 2.47087 16.4893 2.13623 18.4319C1.76018 20.6154 2.17193 22.4371 3.12492 23.9128C4.06363 25.367 5.48263 26.4176 7.01636 27.1716C10.0681 28.6729 13.8048 29.1142 15.9998 29.1142C18.1947 29.1142 21.9309 28.6729 24.9822 27.1711C26.5159 26.4166 27.9335 25.366 28.8736 23.9113C29.8266 22.4357 30.2389 20.614 29.8628 18.43ZM26.9296 4.74497V4.74783V4.74497ZM28.0801 18.737C28.3843 20.5045 28.0444 21.8606 27.3537 22.9307C26.6497 24.0218 25.5339 24.8834 24.182 25.5498C21.4687 26.8826 18.0362 27.3053 15.9998 27.3053C13.9634 27.3053 10.5308 26.8826 7.81464 25.5498C6.46466 24.8834 5.34887 24.0237 4.64437 22.9317C3.95414 21.8621 3.61426 20.504 3.91892 18.7394C4.23928 16.8801 4.85572 15.363 5.66495 14.1306L5.85916 13.834L5.80014 13.4846C5.5031 11.7334 5.18893 9.32997 5.128 7.38163C5.09611 6.39723 5.13086 5.5899 5.23891 5.05438C5.24748 5.0125 5.25605 4.97441 5.26462 4.93919C7.1306 6.34582 8.96422 8.64403 9.71157 9.71888L10.1162 10.3006L10.7778 10.0469C14.1395 8.75731 17.8595 8.75731 21.2212 10.0469L21.8833 10.3006L22.2879 9.71888C23.0353 8.64403 24.8689 6.3463 26.7349 4.93919C26.7435 4.97441 26.752 5.0125 26.7606 5.05438C26.8691 5.5899 26.9034 6.39675 26.872 7.38068C26.8092 9.32807 26.4969 11.731 26.2008 13.4823L26.1422 13.8307L26.3355 14.1268C27.1414 15.3644 27.7607 16.8806 28.0801 18.7365L28.9717 18.5833L28.0801 18.737Z" fill="white"/>
<path d="M26.9295 3.84352C28.3709 3.84352 27.6911 10.0912 27.0928 13.6328C27.9706 14.978 28.6322 16.6136 28.9716 18.5834C30.3316 26.4853 20.2329 28.2099 15.9997 28.2099C11.7665 28.2099 1.66633 26.4858 3.02774 18.5858C3.36761 16.6136 4.02737 14.978 4.90658 13.6352C4.30965 10.0931 3.62847 3.84352 5.06985 3.84352C5.21551 3.84352 5.3826 3.90731 5.573 4.04345C7.63749 5.5191 9.65675 8.0558 10.4541 9.20252C14.0243 7.83303 17.975 7.83303 21.5453 9.20252C22.3426 8.0558 24.3619 5.51958 26.4264 4.04345C26.6168 3.90683 26.7843 3.84352 26.9295 3.84352V3.84352ZM26.9295 1.93945C26.3764 1.93945 25.8347 2.12605 25.3196 2.49401C23.6131 3.71405 21.9508 5.55909 20.8451 6.95905C17.6801 6.04177 14.3197 6.04177 11.1548 6.95905C10.0485 5.55909 8.38626 3.71405 6.68022 2.49449C6.16517 2.12653 5.62394 1.93945 5.0708 1.93945C4.35678 1.93945 3.70606 2.24791 3.23195 2.80818C2.74641 3.38274 2.47032 4.19863 2.36322 5.37535C2.29515 6.12317 2.29134 7.05902 2.35179 8.15767C2.45795 10.0746 2.73261 12.0501 2.9154 13.2406C2.06285 14.7234 1.47069 16.4104 1.15128 18.263C0.913271 19.6544 0.955637 20.9763 1.28171 22.1945C1.59206 23.3451 2.15376 24.4126 2.92635 25.32C3.72368 26.2663 4.76568 27.0951 6.02474 27.7838C7.06532 28.3551 8.26202 28.8311 9.5844 29.2081C11.6732 29.7937 13.8305 30.0991 15.9997 30.1163C18.1691 30.0991 20.3265 29.7937 22.4154 29.2081C23.7369 28.8325 24.9345 28.3513 25.9751 27.7838C27.2337 27.0951 28.2762 26.2663 29.073 25.32C29.8457 24.4126 30.4076 23.3451 30.7181 22.1945C31.0437 20.9773 31.0875 19.6544 30.8481 18.263C30.5296 16.4123 29.9375 14.7267 29.0868 13.2415C29.2725 12.0515 29.5447 10.0736 29.6504 8.15671C29.7109 7.05854 29.7071 6.12269 29.639 5.37535C29.5324 4.19863 29.2582 3.38321 28.7703 2.80866C28.5468 2.53667 28.2658 2.31764 27.9475 2.16733C27.6292 2.01703 27.2815 1.9392 26.9295 1.93945V1.93945Z" fill="url(#paint0_linear_431_150)"/>
<defs>
<linearGradient id="paint0_linear_431_150" x1="30.037" y1="9.27012" x2="3.23728" y2="24.8121" gradientUnits="userSpaceOnUse">
<stop stop-color="#8A5CDB"/>
<stop offset="0.1505" stop-color="#265AC1"/>
<stop offset="0.286458" stop-color="#1D74A5"/>
<stop offset="0.432292" stop-color="#2767EF"/>
<stop offset="0.572917" stop-color="#79D938"/>
<stop offset="0.697917" stop-color="#DAC32B"/>
<stop offset="0.817708" stop-color="#FE7238"/>
<stop offset="0.932292" stop-color="#F3378E"/>
<stop offset="1" stop-color="#F52020"/>
</linearGradient>
</defs>
</svg>
